<svg xmlns="http://www.w3.org/2000/svg" viewBox="0 0 32 32" width="512" height="512">
  <rect width="32" height="32" rx="7" fill="#08090a"/>
  <g transform="translate(16 16) scale(0.78) translate(-16.7 -16)">
    <path fill="#e4f222" fill-rule="evenodd" d="M9 6.5H17.9C21.2 6.5 23.2 8.4 23.2 11.1C23.2 12.9 22.3 14.3 20.8 15.05C22.9 15.7 24.4 17.4 24.4 19.9C24.4 23.1 22 25.5 18.4 25.5H9ZM13 10V14H17.4C18.7 14 19.45 13.25 19.45 12C19.45 10.75 18.7 10 17.4 10ZM13 17.2V22H17.9C19.55 22 20.55 21.1 20.55 19.6C20.55 18.1 19.55 17.2 17.9 17.2Z"/>
  </g>
</svg>
